<?xml version="1.0" standalone="no"?>
<!DOCTYPE svg PUBLIC "-//W3C//DTD SVG 20010904//EN"
 "http://www.w3.org/TR/2001/REC-SVG-20010904/DTD/svg10.dtd">
<svg version="1.0" xmlns="http://www.w3.org/2000/svg"
 width="374.000000pt" height="219.000000pt" viewBox="0 0 374.000000 219.000000"
 preserveAspectRatio="xMidYMid meet">
<metadata>
Created by potrace 1.16, written by Peter Selinger 2001-2019
</metadata>
<g transform="translate(0.000000,219.000000) scale(0.100000,-0.100000)"
fill="#000000" stroke="none">
<path d="M1750 2180 c-88 -11 -201 -38 -217 -51 -10 -9 -13 -47 -13 -145 l0
-134 -97 0 c-54 0 -169 -3 -255 -7 l-158 -6 0 125 c0 94 -3 128 -14 137 -18
15 -173 48 -266 56 -114 9 -358 -26 -397 -57 -9 -8 -13 -51 -13 -153 l0 -143
-97 -7 c-117 -8 -174 -30 -203 -77 -19 -32 -20 -48 -20 -611 0 -645 -2 -626
68 -664 20 -11 64 -24 97 -27 33 -4 81 -9 108 -12 l47 -6 0 -143 c0 -102 4
-145 13 -152 19 -16 135 -41 237 -53 132 -15 383 15 427 52 9 7 13 44 13 136
l0 125 158 -6 c86 -4 201 -7 255 -7 l97 0 0 -139 c0 -99 4 -141 13 -148 19
-16 137 -42 239 -53 66 -8 122 -7 188 0 104 12 218 37 238 52 8 8 12 50 12
149 l0 139 188 0 c103 0 217 3 255 7 l67 6 0 -125 c0 -89 4 -128 13 -136 46
-37 300 -68 431 -52 102 12 215 37 234 52 8 8 12 51 12 154 0 123 2 144 15
144 57 0 216 24 243 37 18 9 41 28 52 43 19 27 20 46 20 623 l0 594 -22 28
c-28 36 -92 65 -144 65 -23 0 -69 3 -103 6 l-61 7 0 142 c0 109 -3 145 -14
154 -32 26 -199 54 -331 54 -132 0 -299 -28 -331 -54 -11 -9 -14 -43 -14 -138
l0 -126 -152 2 c-84 2 -199 6 -255 9 l-102 6 -3 136 c-3 135 -3 137 -28 149
-75 35 -309 59 -430 43z m220 -30 c41 -5 105 -17 143 -26 l67 -16 0 -129 c0
-79 -4 -129 -10 -129 -6 0 -10 47 -10 120 0 137 6 128 -107 154 -93 21 -270
21 -371 0 -118 -24 -112 -16 -112 -154 0 -73 -4 -120 -10 -120 -6 0 -10 48
-10 125 0 145 -7 135 116 159 135 26 195 30 304 16z m-1200 -30 c41 -5 105
-17 143 -26 l67 -16 0 -119 c0 -73 -4 -119 -10 -119 -6 0 -10 43 -10 110 0
128 6 120 -120 146 -144 29 -434 5 -461 -38 -5 -7 -9 -66 -9 -130 0 -72 -4
-118 -10 -118 -6 0 -10 50 -10 130 l0 130 28 11 c15 6 59 17 97 24 125 25 188
28 295 15z m2499 -17 c118 -24 111 -13 111 -168 0 -83 -4 -135 -10 -135 -6 0
-10 50 -10 130 0 150 7 139 -112 164 -135 28 -387 14 -460 -25 -16 -8 -18 -25
-18 -119 0 -67 -4 -110 -10 -110 -6 0 -10 45 -10 115 0 99 2 116 18 124 17 9
148 37 212 45 57 7 206 -4 289 -21z m-984 -293 c774 -16 1319 -47 1364 -77 52
-34 50 -10 51 -629 0 -563 -1 -582 -20 -606 -29 -38 -59 -45 -245 -62 -822
-75 -2204 -75 -3105 0 -207 17 -241 24 -270 61 -20 25 -20 39 -20 603 0 574 0
577 21 604 12 15 33 32 46 37 65 24 585 58 1078 68 501 11 602 12 1100 1z
m-1915 -1532 c0 -68 4 -129 9 -136 27 -43 317 -67 461 -38 126 26 120 18 120
146 0 67 4 110 10 110 6 0 10 -45 10 -115 0 -133 7 -124 -120 -151 -146 -30
-368 -19 -483 25 l-27 11 0 135 c0 83 4 135 10 135 6 0 10 -48 10 -122z m3010
-18 l0 -130 -27 -11 c-145 -55 -431 -55 -576 0 l-27 11 0 115 c0 70 4 115 10
115 6 0 10 -43 10 -110 0 -127 -6 -120 112 -144 99 -20 267 -20 366 0 119 24
112 15 112 159 0 77 4 125 10 125 6 0 10 -50 10 -130z m-1810 -27 c0 -65 4
-124 9 -131 27 -43 317 -67 461 -38 127 26 120 16 120 161 0 77 4 125 10 125
6 0 10 -50 10 -130 l0 -130 -27 -11 c-125 -47 -361 -55 -508 -17 l-90 23 -3
133 c-2 85 1 132 8 132 6 0 10 -44 10 -117z"/>
</g>
</svg>
