<?xml version="1.0" standalone="no"?>
<!DOCTYPE svg PUBLIC "-//W3C//DTD SVG 20010904//EN"
 "http://www.w3.org/TR/2001/REC-SVG-20010904/DTD/svg10.dtd">
<svg version="1.0" xmlns="http://www.w3.org/2000/svg"
 width="442.000000pt" height="218.000000pt" viewBox="0 0 442.000000 218.000000"
 preserveAspectRatio="xMidYMid meet">

<g transform="translate(0.000000,218.000000) scale(0.100000,-0.100000)"
fill="#000000" stroke="none">
<path d="M1540 2149 c-52 -11 -100 -25 -107 -31 -9 -8 -13 -48 -13 -149 l0
-139 -44 0 c-23 0 -71 -3 -105 -6 l-61 -7 0 125 c0 147 0 146 -105 173 -114
29 -317 32 -445 6 -142 -29 -140 -26 -140 -201 0 -148 -1 -150 -53 -150 -37 0
-89 -34 -109 -71 -14 -27 -18 -56 -18 -151 l0 -117 -137 -3 c-137 -3 -138 -3
-150 -29 -47 -98 -63 -366 -30 -519 29 -134 23 -130 182 -130 l135 0 0 -117
c0 -99 3 -123 20 -150 22 -37 61 -60 119 -69 l41 -7 0 -141 c0 -98 4 -147 12
-159 18 -23 162 -56 279 -63 140 -10 359 26 387 63 8 11 12 56 12 135 l0 119
103 -3 102 -3 2 -130 c2 -72 5 -140 8 -152 4 -18 20 -25 97 -44 161 -39 441
-27 547 24 26 12 26 13 29 150 l3 137 104 0 104 0 3 -137 c3 -137 3 -138 29
-150 109 -52 397 -63 554 -22 l90 24 9 146 9 147 45 6 c25 3 71 6 103 6 l58 0
3 -132 3 -133 90 -24 c159 -42 444 -31 553 21 l27 13 3 153 c2 136 4 152 20
152 38 0 95 23 125 50 l32 28 5 129 5 128 134 3 c74 1 140 7 147 13 7 6 23 52
35 102 38 158 26 431 -24 537 -12 25 -14 25 -155 28 l-142 3 0 129 c0 122 -1
130 -25 158 -26 32 -58 47 -117 57 l-38 6 0 142 c0 78 -4 148 -9 155 -17 27
-151 54 -296 59 -118 4 -156 2 -245 -17 -57 -12 -110 -26 -117 -32 -9 -7 -13
-47 -13 -140 l0 -129 -107 3 -108 3 -3 141 c-2 98 -6 145 -15 152 -7 6 -60 20
-117 32 -89 19 -127 21 -245 17 -145 -5 -279 -32 -296 -59 -5 -7 -9 -70 -9
-140 l0 -128 -105 0 -105 0 0 128 c0 70 -4 133 -9 140 -4 8 -41 23 -82 34
-112 31 -342 35 -469 7z m465 -26 l70 -19 3 -132 c2 -113 0 -132 -13 -132 -13
0 -15 18 -15 115 0 132 0 132 -100 156 -85 21 -328 17 -410 -7 l-65 -19 -5
-124 c-3 -87 -9 -126 -17 -129 -17 -5 -19 263 -2 273 5 4 49 15 97 26 114 25
351 21 457 -8z m890 1 l70 -19 3 -137 c2 -118 0 -138 -13 -138 -13 0 -15 20
-15 125 l0 125 -27 11 c-102 39 -287 49 -424 23 -130 -24 -129 -23 -129 -159
0 -97 -2 -115 -15 -115 -13 0 -15 19 -13 132 l3 132 35 9 c125 33 161 36 305
33 104 -3 171 -10 220 -22z m-1827 -23 c51 -11 100 -25 108 -32 21 -17 20
-239 -1 -239 -12 0 -15 18 -15 103 0 126 -2 129 -119 151 -107 21 -249 20
-353 0 -119 -24 -118 -23 -118 -171 0 -103 -2 -123 -15 -123 -22 0 -22 262 -1
280 8 6 54 20 103 30 120 25 290 26 411 1z m2727 -8 l70 -19 3 -142 c2 -122 0
-142 -13 -142 -13 0 -15 20 -15 125 0 149 3 145 -135 171 -109 20 -276 14
-375 -13 l-65 -18 -3 -113 c-2 -90 -5 -112 -17 -112 -12 0 -15 21 -15 119 0
74 4 122 11 126 5 4 49 15 97 26 113 25 350 20 457 -8z m-550 -302 c443 -22
708 -42 736 -57 62 -31 59 -3 59 -645 l0 -587 -35 -31 c-20 -17 -39 -31 -43
-31 -5 0 -105 -9 -223 -20 -375 -34 -578 -41 -1255 -47 -676 -6 -1142 4 -1584
33 -310 20 -440 33 -472 50 -60 31 -58 5 -58 634 0 549 1 576 19 606 11 19 33
36 53 43 58 19 467 48 918 65 189 7 1680 -3 1885 -13z m-2905 -396 c0 -12 -20
-15 -119 -15 -83 0 -122 -4 -129 -12 -21 -27 -46 -175 -46 -278 0 -103 25
-251 46 -277 7 -9 46 -13 129 -13 99 0 119 -3 119 -15 0 -13 -21 -15 -133 -15
l-134 0 -11 38 c-45 150 -51 337 -16 493 26 116 15 109 164 109 109 0 130 -2
130 -15z m4018 -30 c7 -22 21 -89 29 -150 18 -121 10 -247 -23 -379 l-16 -66
-140 0 c-107 0 -139 3 -136 13 3 8 40 13 125 15 80 2 124 7 131 15 20 24 43
177 43 279 0 100 -20 229 -41 269 -10 17 -22 19 -130 19 -101 0 -120 2 -120
15 0 13 19 15 132 13 l133 -3 13 -40z m-3788 -1086 c0 -66 4 -129 10 -139 38
-71 532 -71 570 0 6 10 10 64 10 119 0 83 3 101 15 101 12 0 15 -20 15 -120 0
-138 7 -128 -115 -156 -109 -25 -311 -25 -420 0 -123 28 -115 16 -115 170 0
73 3 136 7 139 18 19 23 -3 23 -114z m3300 -20 l0 -140 -32 -14 c-18 -7 -80
-21 -137 -30 -142 -24 -276 -16 -433 26 l-38 10 0 124 c0 104 2 125 15 125 12
0 15 -19 15 -109 0 -78 4 -112 13 -120 26 -21 163 -44 272 -45 109 0 254 23
283 46 8 7 12 48 12 139 0 108 2 129 15 129 13 0 15 -22 15 -141z m-2400 -33
c0 -87 4 -127 13 -134 27 -22 173 -46 277 -46 103 0 251 25 278 46 8 7 12 46
12 129 0 99 3 119 15 119 13 0 15 -21 15 -130 0 -149 7 -138 -109 -164 -153
-35 -340 -29 -493 14 l-38 11 0 139 c0 118 2 140 15 140 13 0 15 -20 15 -124z
m1502 -17 c-2 -81 -7 -136 -14 -140 -5 -4 -47 -15 -92 -25 -111 -25 -312 -25
-421 0 -123 28 -115 16 -115 166 0 109 2 130 15 130 12 0 15 -19 15 -113 0
-75 4 -119 13 -129 20 -27 160 -52 282 -51 109 0 246 23 272 44 9 8 13 41 13
113 0 111 7 149 24 143 8 -3 10 -45 8 -138z"/>
</g>
</svg>
