<?xml version="1.0" standalone="no"?>
<!DOCTYPE svg PUBLIC "-//W3C//DTD SVG 20010904//EN"
 "http://www.w3.org/TR/2001/REC-SVG-20010904/DTD/svg10.dtd">
<svg version="1.0" xmlns="http://www.w3.org/2000/svg"
 width="116.000000pt" height="186.000000pt" viewBox="0 0 116.000000 186.000000"
 preserveAspectRatio="xMidYMid meet">
<metadata>
Created by potrace 1.16, written by Peter Selinger 2001-2019
</metadata>
<g transform="translate(0.000000,186.000000) scale(0.100000,-0.100000)"
fill="#000000" stroke="none">
<path d="M485 1849 c-107 -9 -227 -37 -243 -57 -8 -11 -12 -55 -12 -138 l0
-122 -66 -4 c-92 -6 -105 -23 -127 -159 -27 -167 -37 -283 -37 -454 0 -191 19
-372 55 -533 8 -35 62 -62 123 -62 l52 0 0 -124 c0 -92 3 -126 14 -135 7 -6
56 -21 107 -33 162 -37 435 -24 539 25 25 12 25 15 28 140 l3 127 55 0 c59 0
107 19 123 48 30 57 63 536 50 739 -9 155 -35 347 -50 375 -16 29 -64 48 -124
48 l-55 0 0 129 c0 91 -4 131 -12 138 -20 16 -145 44 -217 49 -36 3 -79 6 -96
7 -16 2 -66 0 -110 -4z m278 -45 c136 -26 127 -15 127 -149 0 -94 -3 -115 -15
-115 -11 0 -15 21 -17 107 l-3 108 -75 18 c-140 35 -423 20 -477 -24 -9 -8
-13 -41 -13 -110 0 -82 -3 -99 -15 -99 -13 0 -15 17 -13 117 l3 118 65 18
c126 34 289 39 433 11z m271 -316 c30 -13 31 -15 51 -140 37 -235 37 -529 0
-823 -19 -148 -20 -149 -51 -163 -35 -17 -873 -17 -908 -1 -31 15 -32 17 -57
163 -39 234 -36 584 7 836 19 112 22 120 47 130 35 14 881 12 911 -2z m-744
-1272 c0 -71 4 -107 13 -114 25 -21 167 -42 279 -42 105 0 145 6 241 31 l37
10 0 109 c0 91 3 110 15 110 12 0 15 -20 15 -119 l0 -119 -62 -15 c-164 -41
-285 -44 -453 -11 -121 24 -115 16 -115 149 0 96 3 115 15 115 12 0 15 -18 15
-104z"/>
</g>
</svg>
