<?xml version="1.0" standalone="no"?>
<!DOCTYPE svg PUBLIC "-//W3C//DTD SVG 20010904//EN"
 "http://www.w3.org/TR/2001/REC-SVG-20010904/DTD/svg10.dtd">
<svg version="1.0" xmlns="http://www.w3.org/2000/svg"
 width="60.000000pt" height="60.000000pt" viewBox="0 0 60.000000 60.000000"
 preserveAspectRatio="xMidYMid meet">

<g transform="translate(0.000000,60.000000) scale(0.100000,-0.100000)"
fill="#000000" stroke="none">
<path d="M47 579 c-40 -23 -47 -68 -47 -284 0 -218 6 -251 49 -275 29 -15 481
-13 502 3 35 27 39 53 39 281 l0 224 -26 31 -26 31 -236 0 c-150 0 -244 -5
-255 -11z m503 -29 c19 -19 20 -33 20 -250 0 -217 -1 -231 -20 -250 -19 -19
-33 -20 -253 -20 -225 0 -235 1 -253 21 -18 19 -19 39 -19 249 0 210 1 230 19
249 18 20 28 21 253 21 220 0 234 -1 253 -20z"/>
</g>
</svg>
