<?xml version="1.0" standalone="no"?>
<!DOCTYPE svg PUBLIC "-//W3C//DTD SVG 20010904//EN"
 "http://www.w3.org/TR/2001/REC-SVG-20010904/DTD/svg10.dtd">
<svg version="1.0" xmlns="http://www.w3.org/2000/svg"
 width="212.000000pt" height="177.000000pt" viewBox="0 0 212.000000 177.000000"
 preserveAspectRatio="xMidYMid meet">
<metadata>
Created by potrace 1.16, written by Peter Selinger 2001-2019
</metadata>
<g transform="translate(0.000000,177.000000) scale(0.100000,-0.100000)"
fill="#000000" stroke="none">
<path d="M520 1760 c-101 -11 -217 -38 -235 -57 -12 -11 -15 -44 -15 -154 0
-104 -3 -139 -12 -139 -52 0 -182 -22 -206 -34 -51 -27 -52 -33 -52 -510 0
-426 1 -444 20 -468 27 -35 60 -46 162 -53 l88 -7 0 -128 c0 -98 3 -132 14
-143 40 -39 286 -72 428 -57 106 11 215 35 235 52 9 7 13 42 13 124 l0 114
125 0 125 0 0 -114 c0 -82 4 -117 13 -124 20 -17 129 -41 235 -52 142 -15 388
18 428 57 11 11 14 45 14 143 l0 129 58 6 c88 10 121 24 143 59 18 29 19 55
19 466 0 325 -3 441 -13 459 -22 44 -60 63 -136 69 l-71 5 0 143 c0 113 -3
146 -15 157 -38 38 -286 71 -427 56 -104 -10 -216 -35 -235 -50 -9 -8 -13 -45
-13 -135 l0 -124 -125 0 -125 0 0 124 c0 95 -3 126 -14 135 -20 16 -183 48
-276 54 -41 2 -109 1 -150 -3z m180 -29 c47 -5 118 -17 158 -26 l72 -17 0
-119 c0 -73 -4 -119 -10 -119 -6 0 -10 41 -10 104 0 74 -4 107 -13 115 -28 23
-162 44 -282 44 -119 0 -243 -20 -272 -44 -9 -8 -13 -44 -13 -130 0 -100 -2
-119 -15 -119 -13 0 -15 19 -13 133 l3 132 70 18 c39 10 104 21 145 26 41 5
80 9 85 9 6 1 48 -2 95 -7z m1043 -17 c138 -26 127 -12 127 -169 0 -83 -4
-135 -10 -135 -6 0 -10 48 -10 123 0 106 -3 126 -17 139 -50 43 -318 62 -461
32 -118 -24 -112 -17 -112 -144 0 -67 -4 -110 -10 -110 -6 0 -10 46 -10 119
l0 119 73 17 c153 36 276 38 430 9z m-198 -314 c483 -30 505 -34 525 -70 6
-12 10 -188 10 -463 0 -510 7 -474 -98 -488 -89 -13 -747 -49 -884 -49 -122 0
-794 33 -938 46 -63 6 -78 11 -102 35 l-28 27 0 426 c0 257 4 435 10 451 14
38 58 51 210 65 469 41 862 48 1295 20z m-1215 -1180 c0 -77 4 -111 13 -119
70 -58 484 -58 554 0 9 8 13 40 13 105 0 56 4 94 10 94 6 0 10 -43 10 -109 l0
-109 -72 -17 c-174 -40 -335 -39 -489 3 l-64 17 -3 127 c-2 111 -1 127 13 122
12 -5 15 -26 15 -114z m1538 -7 l-3 -128 -64 -17 c-152 -41 -318 -42 -488 -3
l-73 17 0 109 c0 66 4 109 10 109 6 0 10 -38 10 -94 0 -65 4 -97 13 -105 70
-58 484 -58 554 0 9 8 13 42 13 119 0 58 3 110 7 113 19 20 23 -5 21 -120z"/>
</g>
</svg>
