<?xml version="1.0" standalone="no"?>
<!DOCTYPE svg PUBLIC "-//W3C//DTD SVG 20010904//EN"
 "http://www.w3.org/TR/2001/REC-SVG-20010904/DTD/svg10.dtd">
<svg version="1.0" xmlns="http://www.w3.org/2000/svg"
 width="219.000000pt" height="374.000000pt" viewBox="0 0 219.000000 374.000000"
 preserveAspectRatio="xMidYMid meet">
<metadata>
Created by potrace 1.16, written by Peter Selinger 2001-2019
</metadata>
<g transform="translate(0.000000,374.000000) scale(0.100000,-0.100000)"
fill="#000000" stroke="none">
<path d="M476 3719 c-40 -32 -53 -66 -65 -172 -6 -53 -11 -101 -11 -107 0 -6
-47 -10 -129 -10 -71 0 -140 -4 -153 -9 -20 -7 -28 -23 -42 -83 -31 -127 -40
-247 -28 -356 15 -123 40 -223 60 -239 11 -9 55 -13 135 -13 l120 0 -6 -127
c-4 -71 -7 -183 -7 -250 l0 -123 -133 0 c-91 0 -138 -4 -149 -12 -9 -7 -26
-56 -38 -108 -32 -135 -32 -327 -1 -460 13 -52 30 -101 39 -107 11 -9 58 -13
149 -13 l133 0 0 -219 c0 -120 3 -233 6 -250 l7 -31 -120 0 c-80 0 -124 -4
-135 -12 -20 -17 -45 -117 -60 -240 -12 -109 -3 -229 28 -356 14 -60 22 -76
42 -83 13 -5 81 -9 151 -9 l128 0 12 -111 c13 -119 23 -149 66 -189 l27 -25
584 -3 c651 -3 632 -5 675 65 19 30 34 133 39 251 0 9 33 12 133 12 102 0 138
3 154 15 42 29 78 269 63 422 -11 112 -37 229 -57 248 -11 12 -42 15 -136 15
l-122 0 3 228 c1 125 5 237 8 250 4 21 8 22 133 22 101 0 133 3 144 15 38 37
72 288 58 423 -12 113 -39 228 -58 247 -11 12 -42 15 -142 15 l-128 0 -6 182
c-4 99 -7 212 -7 250 l0 68 119 0 c93 0 123 3 134 15 20 19 46 136 57 248 15
153 -21 393 -63 422 -16 12 -52 15 -154 15 -120 0 -133 2 -133 18 -1 63 -21
195 -34 220 -9 17 -28 40 -42 51 -26 21 -33 21 -624 21 -591 0 -598 0 -624
-21z m1202 -20 c57 -20 70 -56 86 -250 36 -420 41 -590 41 -1479 0 -881 -6
-1129 -41 -1630 -16 -229 -24 -262 -75 -287 -18 -10 -160 -13 -589 -13 -540 0
-566 1 -596 19 -19 12 -36 33 -43 53 -24 76 -55 503 -72 988 -13 370 -7 1425
11 1770 13 261 39 626 50 709 9 65 33 104 75 121 31 13 1116 12 1153 -1z
m-1278 -314 c0 -13 -21 -15 -129 -15 -91 0 -132 -4 -139 -12 -35 -43 -56 -317
-32 -437 28 -145 22 -141 168 -141 54 0 92 -4 92 -10 0 -6 -45 -10 -115 -10
l-115 0 -11 27 c-56 148 -56 438 0 586 l11 27 135 0 c113 0 135 -2 135 -15z
m1668 7 c6 -5 21 -51 33 -103 27 -120 28 -282 4 -399 -29 -141 -16 -130 -150
-130 -70 0 -115 4 -115 10 0 6 39 10 98 10 63 0 104 5 115 13 48 34 73 307 43
457 -26 127 -16 120 -160 120 -101 0 -125 3 -130 15 -5 13 13 15 122 15 70 0
133 -4 140 -8z m-1718 -1207 c0 -13 -20 -15 -124 -15 -87 0 -127 -4 -134 -12
-20 -25 -42 -168 -42 -278 0 -120 22 -256 46 -280 11 -11 44 -16 134 -18 66
-2 120 -8 120 -13 0 -5 -58 -9 -130 -9 l-130 0 -11 27 c-45 118 -56 350 -25
488 31 137 16 125 166 125 109 0 130 -2 130 -15z m1747 7 c16 -10 40 -111 53
-219 11 -104 1 -238 -28 -344 l-17 -64 -128 -3 c-82 -2 -127 1 -127 8 0 6 41
10 109 10 89 0 112 3 129 18 27 24 52 156 52 282 0 99 -24 254 -43 278 -6 8
-45 12 -128 12 -99 0 -119 3 -119 15 0 12 20 15 118 15 64 0 122 -4 129 -8z
m-1737 -1202 c0 -6 -40 -10 -99 -10 -80 0 -103 -3 -119 -17 -29 -25 -53 -153
-53 -283 0 -104 23 -253 43 -277 7 -9 47 -13 134 -13 104 0 124 -2 124 -15 0
-13 -21 -15 -130 -15 l-130 0 -11 27 c-56 148 -56 438 0 586 l11 27 115 0 c70
0 115 -4 115 -10z m1719 -13 c24 -62 44 -201 43 -302 0 -117 -31 -292 -54
-307 -7 -4 -70 -8 -140 -8 -107 0 -128 2 -128 15 0 13 21 15 130 15 151 0 140
-8 166 120 30 150 5 423 -43 457 -11 8 -52 13 -115 13 -59 0 -98 4 -98 10 0 6
45 10 115 10 111 0 116 -1 124 -23z"/>
</g>
</svg>
