<?xml version="1.0" standalone="no"?>
<!DOCTYPE svg PUBLIC "-//W3C//DTD SVG 20010904//EN"
 "http://www.w3.org/TR/2001/REC-SVG-20010904/DTD/svg10.dtd">
<svg version="1.0" xmlns="http://www.w3.org/2000/svg"
 width="176.000000pt" height="211.000000pt" viewBox="0 0 176.000000 211.000000"
 preserveAspectRatio="xMidYMid meet">
<metadata>
Created by potrace 1.16, written by Peter Selinger 2001-2019
</metadata>
<g transform="translate(0.000000,211.000000) scale(0.100000,-0.100000)"
fill="#000000" stroke="none">
<path d="M419 2097 c-31 -24 -47 -64 -54 -134 l-7 -73 -149 0 c-171 0 -156 9
-185 -115 -38 -162 -17 -499 34 -557 13 -15 34 -18 140 -18 l125 0 -7 -61 c-3
-34 -6 -88 -6 -120 l0 -59 -119 0 c-89 0 -123 -4 -134 -14 -7 -8 -22 -52 -33
-98 -38 -165 -17 -513 33 -564 11 -11 47 -14 153 -14 l138 0 6 -28 c2 -15 8
-58 11 -97 7 -68 23 -108 54 -132 21 -16 912 -18 942 -3 33 18 49 66 56 165
l6 95 133 0 c157 0 151 -4 180 125 36 158 18 463 -32 543 -14 21 -21 22 -129
22 l-115 0 0 120 0 119 117 3 c117 3 118 3 131 30 52 110 63 403 21 563 l-24
90 -141 3 -141 3 -7 70 c-7 77 -25 123 -55 139 -30 15 -921 13 -942 -3z m928
-32 c13 -9 27 -32 32 -53 18 -71 51 -656 51 -916 0 -225 -37 -944 -51 -998
-18 -70 -4 -68 -487 -68 -276 0 -440 4 -452 10 -11 6 -24 19 -29 29 -16 29
-38 285 -57 648 -18 353 -16 456 22 1003 19 287 23 309 50 337 l23 23 438 0
c378 0 442 -2 460 -15z m-997 -215 c0 -5 -55 -11 -132 -12 l-132 -3 -19 -70
c-37 -135 -22 -446 24 -502 8 -9 42 -13 120 -13 68 0 109 -4 109 -10 0 -7 -43
-10 -122 -8 l-123 3 -18 75 c-10 41 -20 131 -24 200 -4 104 -1 142 17 229 11
58 23 108 26 113 7 12 274 10 274 -2z m1340 -27 c28 -101 42 -221 37 -318 -6
-103 -32 -240 -49 -262 -7 -9 -43 -13 -114 -13 -86 0 -104 3 -104 15 0 12 18
15 100 15 100 0 101 0 111 28 21 54 39 175 39 260 0 97 -32 271 -52 283 -7 5
-61 9 -120 9 -65 0 -108 4 -108 10 0 6 48 10 125 10 l124 0 11 -37z m-1380
-908 c0 -12 -18 -15 -104 -15 -71 0 -107 -4 -114 -12 -19 -23 -42 -178 -42
-278 0 -84 15 -196 36 -262 5 -16 20 -18 135 -18 109 0 129 -2 129 -15 0 -13
-20 -15 -137 -13 l-138 3 -19 75 c-27 107 -28 345 -2 455 10 44 20 83 23 88 2
4 56 7 119 7 95 0 114 -3 114 -15z m1379 -22 c41 -154 50 -300 27 -428 -8 -49
-20 -107 -26 -127 l-11 -38 -124 0 c-104 0 -125 2 -125 15 0 12 19 15 115 15
99 0 116 2 124 18 18 33 41 184 41 267 0 83 -23 234 -41 267 -8 15 -24 18
-109 18 -82 0 -100 3 -100 15 0 12 19 15 110 15 l109 0 10 -37z"/>
</g>
</svg>
