<?xml version="1.0" standalone="no"?>
<!DOCTYPE svg PUBLIC "-//W3C//DTD SVG 20010904//EN"
 "http://www.w3.org/TR/2001/REC-SVG-20010904/DTD/svg10.dtd">
<svg version="1.0" xmlns="http://www.w3.org/2000/svg"
 width="960.000000pt" height="296.000000pt" viewBox="0 0 960.000000 296.000000"
 preserveAspectRatio="xMidYMid meet">

<g transform="translate(0.000000,296.000000) scale(0.100000,-0.100000)"
fill="#000000" stroke="none">
<path d="M1095 2046 c-4 -498 -5 -908 -2 -913 3 -4 1660 -8 3684 -7 l3678 0 3
912 2 912 -715 0 -715 0 0 -485 0 -485 -2255 0 -2255 0 0 485 0 485 -709 0
-708 0 -8 -904z"/>
<path d="M95 2006 c-37 -17 -70 -52 -84 -89 -7 -18 -11 -146 -11 -349 0 -301
1 -324 20 -363 13 -27 34 -49 60 -64 39 -21 44 -22 382 -19 475 4 438 -34 438
451 0 330 0 334 -22 367 -13 18 -36 43 -51 54 -27 20 -41 21 -365 23 -266 2
-343 0 -367 -11z m725 -64 c39 -40 42 -69 38 -414 l-3 -298 -33 -32 -32 -33
-313 -3 c-336 -4 -372 0 -406 45 -20 25 -21 38 -21 365 l0 340 29 29 29 29
342 0 342 0 28 -28z"/>
<path d="M8795 2006 c-35 -15 -82 -67 -90 -99 -3 -12 -5 -173 -3 -357 4 -466
-33 -430 450 -430 381 0 383 0 426 81 23 43 23 45 20 381 -3 322 -4 338 -24
364 -11 15 -33 37 -48 48 -26 20 -42 21 -364 23 -265 2 -344 0 -367 -11z m726
-65 l29 -29 0 -340 c0 -327 -1 -340 -21 -365 -34 -45 -70 -49 -407 -45 l-314
3 -29 33 -29 32 0 341 0 341 29 29 29 29 342 0 342 0 29 -29z"/>
<path d="M1196 900 c-16 -5 -40 -19 -53 -32 -53 -49 -53 -52 -53 -415 0 -320
1 -340 20 -371 11 -18 34 -41 52 -52 31 -19 51 -20 371 -20 379 0 388 1 429
69 23 35 23 43 26 366 3 327 2 330 -20 375 -43 84 -46 85 -418 87 -179 1 -338
-2 -354 -7z m693 -54 c49 -26 51 -42 51 -396 l0 -330 -29 -32 -29 -33 -326 -3
c-368 -3 -385 -1 -411 62 -21 50 -22 630 -1 680 28 67 25 66 389 66 264 0 333
-3 356 -14z"/>
<path d="M2275 900 c-17 -5 -46 -26 -65 -45 l-35 -36 -3 -352 c-2 -337 -2
-353 18 -385 11 -18 34 -41 52 -52 32 -20 48 -20 383 -18 480 4 440 -36 440
443 0 324 -1 342 -20 375 -12 19 -36 43 -55 55 -33 19 -53 20 -360 22 -179 1
-339 -2 -355 -7z m711 -74 l34 -34 0 -336 0 -336 -29 -32 -29 -33 -326 -3
c-368 -3 -385 -1 -411 62 -22 52 -22 644 0 686 31 61 28 60 393 60 l334 0 34
-34z"/>
<path d="M3359 901 c-44 -14 -77 -41 -93 -76 -14 -28 -16 -83 -16 -372 0 -320
1 -340 20 -371 11 -18 34 -41 52 -52 32 -20 48 -20 386 -18 l353 3 39 41 c50
54 52 74 48 444 -3 275 -4 297 -23 330 -12 19 -36 43 -55 55 -33 19 -53 20
-360 22 -179 1 -337 -2 -351 -6z m707 -75 l34 -34 0 -334 c0 -365 1 -362 -60
-393 -43 -22 -647 -22 -690 0 -59 31 -61 42 -58 406 l3 331 33 29 32 29 336 0
336 0 34 -34z"/>
<path d="M4438 900 c-37 -11 -68 -34 -89 -67 -17 -26 -19 -54 -19 -373 0 -327
1 -347 20 -378 11 -18 34 -41 52 -52 31 -19 51 -20 371 -20 370 0 370 0 421
60 l26 32 0 351 c0 490 37 451 -430 454 -179 1 -337 -2 -352 -7z m708 -74 l34
-34 0 -325 c0 -188 -4 -337 -10 -351 -5 -14 -24 -35 -42 -46 -31 -19 -51 -20
-351 -20 -350 0 -362 2 -392 60 -14 26 -15 78 -13 361 l3 331 33 29 32 29 336
0 336 0 34 -34z"/>
<path d="M5519 901 c-42 -14 -75 -39 -93 -74 -16 -29 -17 -67 -14 -384 l3
-351 25 -27 c51 -55 52 -55 415 -55 363 0 364 0 415 55 l25 27 3 351 c4 394 3
396 -67 440 -35 21 -44 22 -361 24 -179 1 -337 -2 -351 -6z m703 -70 l33 -29
3 -331 c3 -364 1 -375 -58 -406 -43 -22 -647 -22 -690 0 -59 31 -61 42 -58
406 l3 331 33 29 32 29 335 0 335 0 32 -29z"/>
<path d="M6585 895 c-22 -8 -41 -15 -42 -15 -1 0 -14 -17 -28 -37 l-25 -38 0
-352 0 -351 26 -32 c51 -60 51 -60 421 -60 320 0 340 1 371 20 18 11 41 34 52
52 19 31 20 51 20 377 0 322 -1 346 -19 375 -11 17 -35 40 -53 51 -31 19 -53
20 -358 22 -265 2 -332 0 -365 -12z m717 -64 l33 -29 3 -331 c2 -283 1 -335
-13 -361 -30 -58 -42 -60 -392 -60 -300 0 -320 1 -351 20 -18 11 -37 32 -42
46 -6 14 -10 163 -10 351 l0 325 34 34 34 34 336 0 336 0 32 -29z"/>
<path d="M7667 896 c-99 -36 -101 -46 -105 -396 -4 -369 -2 -390 48 -444 l39
-41 353 -3 c338 -2 354 -2 386 18 18 11 41 34 52 52 19 31 20 51 20 371 0 379
-1 388 -69 429 -35 23 -43 23 -361 25 -255 2 -333 0 -363 -11z m715 -65 l33
-29 3 -331 c3 -364 1 -375 -58 -406 -43 -22 -647 -22 -690 0 -61 31 -60 28
-60 393 l0 334 34 34 34 34 336 0 336 0 32 -29z"/>
</g>
</svg>
