<?xml version="1.0" standalone="no"?>
<!DOCTYPE svg PUBLIC "-//W3C//DTD SVG 20010904//EN"
 "http://www.w3.org/TR/2001/REC-SVG-20010904/DTD/svg10.dtd">
<svg version="1.0" xmlns="http://www.w3.org/2000/svg"
 width="185.000000pt" height="116.000000pt" viewBox="0 0 185.000000 116.000000"
 preserveAspectRatio="xMidYMid meet">
<metadata>
Created by potrace 1.16, written by Peter Selinger 2001-2019
</metadata>
<g transform="translate(0.000000,116.000000) scale(0.100000,-0.100000)"
fill="#000000" stroke="none">
<path d="M700 1149 c-108 -9 -294 -38 -327 -50 -31 -12 -53 -60 -53 -119 l0
-50 -109 0 c-155 0 -155 0 -180 -110 -40 -169 -38 -340 5 -507 8 -32 22 -64
31 -70 11 -9 56 -13 135 -13 l118 0 0 -57 c0 -55 26 -123 47 -123 5 0 78 -9
163 -20 310 -40 664 -35 894 13 76 15 98 43 104 127 l4 60 123 0 c103 0 124 3
138 18 8 9 25 64 37 122 19 89 21 126 17 245 -7 175 -31 284 -67 302 -16 8
-67 13 -136 13 l-111 0 -6 58 c-9 102 -20 110 -192 136 -220 34 -438 42 -635
25z m557 -54 c172 -23 215 -35 230 -65 10 -19 13 -128 13 -448 0 -504 4 -484
-91 -501 -280 -50 -577 -52 -919 -6 -84 12 -109 19 -122 36 -17 20 -18 57 -18
466 l0 444 23 23 c24 24 141 47 336 66 118 12 401 4 548 -15z m-937 -215 c0
-19 -7 -20 -110 -20 l-110 0 -11 -27 c-22 -58 -41 -227 -34 -308 7 -92 31
-203 46 -222 8 -9 41 -13 115 -13 86 0 104 -3 104 -15 0 -12 -20 -15 -116 -15
l-115 0 -14 32 c-27 66 -48 236 -42 337 7 110 38 249 58 262 8 5 62 9 122 9
100 0 107 -1 107 -20z m1449 6 c22 -27 51 -197 51 -304 0 -111 -32 -301 -53
-314 -7 -4 -63 -8 -124 -8 -94 0 -113 3 -113 15 0 12 18 15 98 15 63 0 104 4
114 13 45 34 63 323 30 472 l-18 80 -112 3 c-104 2 -112 4 -112 22 0 19 7 20
114 20 86 0 116 -3 125 -14z"/>
</g>
</svg>
